<svg xmlns="http://www.w3.org/2000/svg" viewBox="0 0 649.1 713.53"><defs><style>.cls-1{fill:#222221;}</style></defs><title>logo</title><g id="Layer_2" data-name="Layer 2"><g id="Objects"><path class="cls-1" d="M530.63,501.27C499.78,455.62,480,437.93,480,361.42a202.37,202.37,0,0,0-9.8-62.31c15.58,4.47,25.16,16.51,23.41,40.51C480.66,517.32,649.1,508.06,649.1,508.06c-55.15-55.15-75.22-95.2-81.79-128.47-12.79.89-21.4,1.47-21.4,1.47l20.78-4.72c-5.1-29.36,0-53.52,0-78.4,0-3.71-.11-7.34-.21-11-18.32,2.42-34.12,4.45-34.12,4.45l34-8.46c-.17-4.55-.45-9-.78-13.47-23.53,5.87-45.51,11.25-45.51,11.25L565.2,264C559,193.23,533.33,135.8,496.06,92.83c-30.07,32.38-60.37,64.62-60.37,64.62l53.57-72.21Q481,76.42,472.08,68.5c-17.71,25.38-33.84,48.25-33.84,48.25l28.65-52.68A270.31,270.31,0,0,0,336.75,4.16a317.07,317.07,0,0,0-44-4.06c-1.25,48.35-3.13,104.65-3.13,104.65L281,0a394.88,394.88,0,0,0-78,8.73c6.75,30.48,13.5,61.88,13.5,61.88L195.94,10.28C155.5,19.61,117.17,34.93,85.67,54.76l36.27,66.71S96,84.73,78.6,59.38q-7.86,5.31-15,11l60.29,81.27S81,106,54.92,77.55C41.69,89.17,30.61,101.8,22.43,115.28l108.3,106.07a202,202,0,0,0-54.2,111.56l0-.08L35.38,478.65l21.8-21S77,393,82.75,372.25l170.64-14.12c0,24.68-4.12,65.81-179.34,93.2L0,713.53s276.09-27,363.15-166.62a125,125,0,0,1,45.31-43.37C435.61,488.52,476.34,479.06,530.63,501.27Z"/></g></g></svg>