<svg xmlns="http://www.w3.org/2000/svg" viewBox="0 0 2854.8 2573.28"><defs><style>.cls-1,.cls-2{fill:#cfaa57;}.cls-2{font-size:1259.69px;font-family:CHANGSans, CHANG Sans;}</style></defs><title>logoo</title><g id="Layer_2" data-name="Layer 2"><g id="Layer_1-2" data-name="Layer 1"><path class="cls-1" d="M2040.32,614.19H814.48C814.48,927.57,486,1015,486,1015c0,1202.69,941.4,1552.63,941.4,1552.63S2368.8,2217.72,2368.8,1015C2368.8,1015,2040.32,927.57,2040.32,614.19ZM1799.74,2136.11c-146.43,150.75-295,236.94-372.34,275.54-77.37-38.6-225.91-124.79-372.34-275.54-122-125.64-219.12-271.38-288.77-433.41C689.43,1524,645.83,1324.34,636.15,1108.1,756.28,1048,894.73,934.1,944,755.1h966.76c49.29,179,187.74,292.85,307.87,353-9.68,216.24-53.28,415.94-130.14,594.6A1428.84,1428.84,0,0,1,1799.74,2136.11Z"/><path class="cls-1" d="M1767.9,446.9l117-216.35L1757.3,314c-25.71,16.81-60.07.13-62.77-30.47L1686.32,110l-96.64,135.32c-29.32,44.29-96.44,36.9-115.41-12.72L1427.4,74.48l-46.87,158.07c-19,49.62-86.09,57-115.4,12.72L1168.48,110l-8.21,173.58c-2.7,30.6-37,47.28-62.77,30.47L969.86,230.55l117,216.35Z"/><path class="cls-1" d="M1478.83,51.43A51.43,51.43,0,1,1,1427.4,0,51.43,51.43,0,0,1,1478.83,51.43Z"/><path class="cls-1" d="M1211,85.12a51.43,51.43,0,1,1-51.43-51.42A51.42,51.42,0,0,1,1211,85.12Z"/><path class="cls-1" d="M1010.65,209.26a51.43,51.43,0,1,1-51.43-51.42A51.43,51.43,0,0,1,1010.65,209.26Z"/><path class="cls-1" d="M1643.76,85.12a51.43,51.43,0,1,0,51.43-51.42A51.43,51.43,0,0,0,1643.76,85.12Z"/><path class="cls-1" d="M1844.16,209.26a51.43,51.43,0,1,0,51.43-51.42A51.42,51.42,0,0,0,1844.16,209.26Z"/><path class="cls-1" d="M133.77,1331.05h0c40.37.57,70.41-34.74,69-77.93-.84-26.07-1.05-39.09-1.06-65.06h0c-40.19-2.53-73,30.85-71.44,75.51C131.25,1290.53,132,1304,133.77,1331.05Z"/><path class="cls-1" d="M77.73,1329.71h0c-45.28-2.71-75.52-44.13-77-87.25C0,1214.17-.11,1200,.07,1171.85h0c43.66,6.35,72.34,46.81,74.19,89.2C75.21,1288.48,75.9,1302.21,77.73,1329.71Z"/><path class="cls-1" d="M197.83,1631.85h0c42.7-10.86,62.13-56.15,52-96.8-6.62-26.7-9.71-40.1-15.43-67h0c-44.34,7.93-65.79,53.46-55.19,94.91C186.21,1590.63,189.93,1604.41,197.83,1631.85Z"/><path class="cls-1" d="M141.37,1647.05h0c-46.63,8.51-86-27.86-96.73-71.1-7.08-29.14-10.38-43.76-16.49-73.08h0c45.92-4.38,83.4,31.63,94.31,74C129.56,1605.06,133.34,1619.09,141.37,1647.05Z"/><path class="cls-1" d="M342,1890.39h0c41.47-28.09,47.29-83.87,23.31-125.38-15.72-27.07-23.34-40.78-38.07-68.52h0c-45.41,24.83-52.66,82.52-27.83,124.73C315.94,1849.24,324.46,1863.08,342,1890.39Z"/><path class="cls-1" d="M275.51,1932.88h0c-46.11,27.53-100.69,1.25-125.61-41.93-17.33-29.84-25.74-45-42-75.52h0c47.08-22.9,99.29,4.82,124.07,46.84C248.88,1890.88,257.59,1905,275.51,1932.88Z"/><path class="cls-1" d="M546.24,2151.55h0c35.32-34.71,32.59-90.08,2-126.82-19.78-23.59-29.48-35.6-48.45-60h0c-39.87,32.2-38,89.78-6.48,127.07C514.08,2116.12,524.67,2128.08,546.24,2151.55Z"/><path class="cls-1" d="M488.62,2205.75h0c-39.48,35.31-97.17,20.67-128.91-17.3-21.87-26-32.58-39.19-53.53-66.07h0c41.22-31.32,97-14.45,128.35,22.36C455.74,2169.6,466.57,2181.81,488.62,2205.75Z"/><path class="cls-1" d="M782.61,2319.23h0c24.32-42.2,9.48-94.65-29.15-122.51-24.52-17.43-36.67-26.43-60.7-45h0c-29.45,41.13-14.36,96.12,25.34,124.31C743.67,2293.9,756.58,2302.53,782.61,2319.23Z"/><path class="cls-1" d="M741.92,2387.69h0c-26.94,44-84.45,48-124.46,19.71-27-18.94-40.37-28.71-66.82-48.81h0c29.2-41.72,86.26-42.1,125.41-14.79C702.16,2361.93,715.34,2370.71,741.92,2387.69Z"/><path class="cls-1" d="M1050,2425.12h0c12.79-45.54-12.41-92.11-56.26-108.6-27.28-10.05-40.91-15.37-68.09-26.63h0c-17.7,46,8.61,95.08,53.66,111.7C1007.53,2411.61,1021.68,2416.32,1050,2425.12Z"/><path class="cls-1" d="M1028.19,2501.83h0c-13.77,47.82-64.82,70-110.61,53.78-29.72-10.54-44.55-16.12-74.14-27.93h0c15.56-47.22,68.1-65.25,112.76-49.58C985,2488.21,999.37,2493,1028.19,2501.83Z"/><path class="cls-1" d="M163.07,1029c-12.39,35.24-56.47,50.12-56.47,50.12S81.08,1034.22,94,997.9s58.39-48.34,58.39-48.34S175.45,993.75,163.07,1029Z"/><path class="cls-1" d="M1426.48,2573.28c-339.8-55.5-621-169-835.68-337.41C418.87,2101,289,1931,204.67,1730.36,61.21,1389,100.52,1073,100.93,1069.89l11.35,1.49c-.41,3.12-39.29,316.4,103.14,655,131.36,312.27,448.41,710.72,1212.9,835.59Z"/><path class="cls-1" d="M2721,1331.05h0c-40.37.57-70.4-34.74-69-77.93.84-26.07,1.05-39.09,1.06-65.06h0c40.19-2.53,73,30.85,71.44,75.51C2723.55,1290.53,2722.85,1304,2721,1331.05Z"/><path class="cls-1" d="M2777.07,1329.71h0c45.28-2.71,75.52-44.13,77-87.25.71-28.29.85-42.42.67-70.61h0c-43.66,6.35-72.34,46.81-74.19,89.2C2779.59,1288.48,2778.9,1302.21,2777.07,1329.71Z"/><path class="cls-1" d="M2657,1631.85h0c-42.7-10.86-62.13-56.15-52-96.8,6.62-26.7,9.71-40.1,15.43-67h0c44.34,7.93,65.79,53.46,55.19,94.91C2668.59,1590.63,2664.87,1604.41,2657,1631.85Z"/><path class="cls-1" d="M2713.43,1647.05h0c46.62,8.51,86-27.86,96.73-71.1,7.08-29.14,10.37-43.76,16.49-73.08h0c-45.92-4.38-83.4,31.63-94.31,74C2725.24,1605.06,2721.46,1619.09,2713.43,1647.05Z"/><path class="cls-1" d="M2512.81,1890.39h0c-41.47-28.09-47.29-83.87-23.31-125.38,15.72-27.07,23.34-40.78,38.08-68.52h0c45.4,24.83,52.65,82.52,27.82,124.73C2538.86,1849.24,2530.34,1863.08,2512.81,1890.39Z"/><path class="cls-1" d="M2579.29,1932.88h0c46.11,27.53,100.69,1.25,125.61-41.93,17.33-29.84,25.74-45,42-75.52h0c-47.08-22.9-99.29,4.82-124.07,46.84C2605.92,1890.88,2597.21,1905,2579.29,1932.88Z"/><path class="cls-1" d="M2308.56,2151.55h0c-35.31-34.71-32.58-90.08-2-126.82,19.78-23.59,29.48-35.6,48.45-60h0c39.87,32.2,38,89.78,6.48,127.07C2340.72,2116.12,2330.13,2128.08,2308.56,2151.55Z"/><path class="cls-1" d="M2366.18,2205.75h0c39.48,35.31,97.17,20.67,128.91-17.3,21.87-26,32.58-39.19,53.53-66.07h0c-41.22-31.32-97-14.45-128.35,22.36C2399.06,2169.6,2388.23,2181.81,2366.18,2205.75Z"/><path class="cls-1" d="M2072.19,2319.23h0c-24.32-42.2-9.48-94.65,29.15-122.51,24.52-17.43,36.67-26.43,60.7-45h0c29.45,41.13,14.36,96.12-25.34,124.31C2111.13,2293.9,2098.22,2302.53,2072.19,2319.23Z"/><path class="cls-1" d="M2112.88,2387.69h0c26.94,44,84.45,48,124.46,19.71,27-18.94,40.37-28.71,66.82-48.81h0c-29.2-41.72-86.26-42.1-125.41-14.79C2152.64,2361.93,2139.46,2370.71,2112.88,2387.69Z"/><path class="cls-1" d="M1804.82,2425.12h0c-12.79-45.54,12.41-92.11,56.26-108.6,27.28-10.05,40.91-15.37,68.09-26.63h0c17.7,46-8.61,95.08-53.66,111.7C1847.27,2411.61,1833.12,2416.32,1804.82,2425.12Z"/><path class="cls-1" d="M1826.61,2501.83h0c13.77,47.82,64.82,70,110.61,53.78,29.72-10.54,44.55-16.12,74.14-27.93h0c-15.56-47.22-68.1-65.25-112.76-49.58C1869.84,2488.21,1855.43,2493,1826.61,2501.83Z"/><path class="cls-1" d="M2691.73,1029c12.39,35.24,56.47,50.12,56.47,50.12s25.52-44.9,12.59-81.22-58.4-48.34-58.4-48.34S2679.35,993.75,2691.73,1029Z"/><path class="cls-1" d="M1428.32,2573.28l-1.84-11.3c764.76-124.91,1081.81-523.6,1213.1-836,142.27-338.58,103.35-651.43,102.94-654.55l11.35-1.49c.42,3.15,39.72,319.07-103.74,660.47C2565.85,1931,2435.93,2101,2264,2235.87,2049.28,2404.26,1768.12,2517.78,1428.32,2573.28Z"/><text class="cls-2" transform="translate(1002.79 1919.81)">O</text></g></g></svg>